<?xml version="1.0" standalone="no"?>
<!DOCTYPE svg PUBLIC "-//W3C//DTD SVG 20010904//EN"
 "http://www.w3.org/TR/2001/REC-SVG-20010904/DTD/svg10.dtd">
<svg version="1.0" xmlns="http://www.w3.org/2000/svg"
 width="1080.000000pt" height="1080.000000pt" viewBox="0 0 1080.000000 1080.000000"
 preserveAspectRatio="xMidYMid meet">

<g transform="translate(0.000000,1080.000000) scale(0.100000,-0.100000)"
fill="#000000" stroke="none">
<path d="M8063 8488 c-150 -150 -533 -534 -852 -852 -319 -318 -578 -583 -574
-589 3 -6 1 -7 -4 -4 -14 9 -85 -61 -77 -75 5 -7 2 -8 -5 -3 -15 9 -84 -62
-74 -78 3 -5 2 -7 -4 -4 -15 9 -86 -60 -77 -74 5 -8 3 -9 -5 -4 -15 9 -84 -62
-74 -78 3 -5 1 -7 -4 -4 -16 10 -87 -59 -78 -74 6 -8 4 -10 -4 -4 -15 9 -84
-62 -74 -78 3 -6 1 -7 -5 -3 -15 9 -165 -141 -156 -156 4 -7 2 -8 -5 -4 -15
10 -85 -60 -75 -75 4 -8 3 -9 -5 -5 -15 10 -85 -60 -75 -75 4 -8 3 -9 -5 -5
-15 10 -85 -60 -75 -75 4 -8 3 -9 -5 -5 -15 10 -85 -60 -75 -75 4 -8 3 -9 -5
-5 -7 5 -26 -7 -47 -28 -21 -21 -33 -40 -28 -47 4 -8 3 -9 -5 -5 -15 10 -85
-60 -75 -75 4 -8 3 -9 -5 -5 -15 10 -85 -60 -75 -75 4 -8 3 -9 -4 -5 -7 4
-344 -324 -872 -851 -2176 -2172 -2960 -2955 -2960 -2958 0 -1 96 -3 212 -4
117 -1 298 -4 403 -6 l189 -5 3362 3362 c1849 1850 3360 3366 3358 3370 -3 5
-182 8 -397 8 l-392 0 -272 -272z"/>
<path d="M3705 5830 l-1690 -1690 300 -1 c165 -1 347 -3 405 -5 l105 -4 1665
1668 c916 918 1676 1680 1689 1695 l23 26 -403 0 -404 1 -1690 -1690z"/>
<path d="M5673 4433 c-759 -764 -1514 -1521 -1676 -1684 -267 -268 -293 -296
-264 -294 18 2 201 3 407 4 l375 1 547 544 c301 299 544 547 540 552 -4 4 -2
4 4 1 13 -7 85 68 75 79 -3 4 -1 5 4 2 6 -4 153 136 327 310 175 175 480 478
678 676 198 197 357 363 354 368 -3 5 -1 7 4 6 15 -5 83 62 76 74 -4 6 -3 8 2
5 14 -8 167 141 158 155 -4 6 -3 8 3 5 14 -9 166 141 157 155 -4 7 -3 8 4 4
10 -6 432 402 432 418 0 3 -186 6 -413 6 l-413 0 -1381 -1387z"/>
<path d="M1925 5709 c-52 -51 -92 -97 -88 -102 3 -6 1 -7 -5 -3 -10 6 -193
-169 -777 -746 -159 -158 -391 -386 -515 -507 l-224 -220 411 0 411 -1 369
363 c202 200 427 420 498 490 72 69 260 254 419 412 159 157 293 285 298 285
5 0 8 3 6 8 -4 7 60 73 66 69 1 -1 10 6 20 16 17 16 12 17 -91 18 -59 0 -242
2 -406 5 l-298 5 -94 -92z"/>
<path d="M5560 2423 l-205 -3 -839 -839 -838 -838 49 2 c26 1 201 3 388 4 341
2 409 6 399 22 -3 5 1 7 8 4 7 -3 366 348 842 825 l828 829 -213 -2 c-118 -1
-306 -3 -419 -4z"/>
</g>
</svg>
